<svg width="25" height="24" viewBox="0 0 25 24" fill="none" xmlns="http://www.w3.org/2000/svg">
<path d="M12.5 22.75C11.72 22.75 10.96 22.35 10.44 21.65L9.43001 20.3C9.22001 20.02 8.94001 19.86 8.64001 19.84C8.34001 19.83 8.04002 19.96 7.80002 20.21L7.25002 19.7L7.80002 20.21C6.36002 21.75 5.25002 21.63 4.72002 21.42C4.18002 21.21 3.27002 20.52 3.27002 18.3V7.04C3.27002 2.6 4.55002 1.25 8.74002 1.25H16.3C20.49 1.25 21.77 2.6 21.77 7.04V18.3C21.77 20.51 20.86 21.2 20.32 21.42C19.79 21.63 18.69 21.75 17.24 20.21C17 19.95 16.7 19.82 16.39 19.84C16.09 19.86 15.8 20.02 15.59 20.3L14.58 21.65C14.04 22.35 13.28 22.75 12.5 22.75ZM8.58002 18.33C8.62002 18.33 8.67002 18.33 8.71002 18.33C9.45002 18.37 10.15 18.76 10.62 19.39L11.63 20.74C12.12 21.39 12.87 21.39 13.36 20.74L14.37 19.39C14.85 18.76 15.54 18.37 16.29 18.33C17.04 18.29 17.77 18.6 18.31 19.18C19.07 19.99 19.56 20.09 19.74 20.02C19.98 19.92 20.24 19.34 20.24 18.3V7.04C20.24 3.43 19.61 2.75 16.27 2.75H8.71002C5.37002 2.75 4.74002 3.43 4.74002 7.04V18.3C4.74002 19.35 5.00002 19.93 5.24002 20.02C5.41002 20.09 5.91001 19.99 6.67001 19.18C7.22001 18.63 7.89002 18.33 8.58002 18.33Z" fill="#6C7175"/>
<path d="M15.25 10.75H9.75C9.34 10.75 9 10.41 9 10C9 9.59 9.34 9.25 9.75 9.25H15.25C15.66 9.25 16 9.59 16 10C16 10.41 15.66 10.75 15.25 10.75Z" fill="#6C7175"/>
</svg>
