<svg width="24" height="25" viewBox="0 0 24 25" fill="none" xmlns="http://www.w3.org/2000/svg">
<path d="M9.56994 19.32C9.37994 19.32 9.18994 19.25 9.03994 19.1L2.96994 13.03C2.67994 12.74 2.67994 12.26 2.96994 11.97L9.03994 5.9C9.32994 5.61 9.80994 5.61 10.0999 5.9C10.3899 6.19 10.3899 6.67 10.0999 6.96L4.55994 12.5L10.0999 18.04C10.3899 18.33 10.3899 18.81 10.0999 19.1C9.95994 19.25 9.75994 19.32 9.56994 19.32Z" fill="#1D2B36"/>
<path d="M20.5 13.25H3.67004C3.26004 13.25 2.92004 12.91 2.92004 12.5C2.92004 12.09 3.26004 11.75 3.67004 11.75H20.5C20.91 11.75 21.25 12.09 21.25 12.5C21.25 12.91 20.91 13.25 20.5 13.25Z" fill="#1D2B36"/>
</svg>
